<?xml version="1.0" standalone="no"?>
<!DOCTYPE svg PUBLIC "-//W3C//DTD SVG 20010904//EN"
 "http://www.w3.org/TR/2001/REC-SVG-20010904/DTD/svg10.dtd">
<svg version="1.0" xmlns="http://www.w3.org/2000/svg"
 width="1024.000000pt" height="26.000000pt" viewBox="0 0 1024.000000 26.000000"
 preserveAspectRatio="xMidYMid meet">

<g transform="translate(0.000000,26.000000) scale(0.100000,-0.100000)"
fill="#000000" stroke="none">
<path d="M4995 169 c-4 -5 -3 -22 1 -37 5 -15 9 -49 9 -76 0 -30 5 -51 12 -53
9 -3 11 4 7 26 -8 40 8 40 38 1 12 -17 31 -30 42 -30 17 0 13 7 -22 43 -23 23
-42 46 -42 50 0 5 16 15 35 23 30 12 40 12 69 0 36 -15 59 -59 49 -95 -3 -12
-1 -21 6 -21 20 0 23 47 6 83 -16 34 -64 67 -97 67 -8 0 -30 -8 -50 -19 -31
-15 -38 -16 -42 -4 -11 28 -6 35 19 29 27 -7 35 8 9 18 -23 9 -42 7 -49 -5z"/>
</g>
</svg>
